# Blender 4.0.2
# www.blender.org
mtllib Plant2.mtl
o Vert.004
v -0.012036 0.001779 -0.010745
v -0.015603 0.003081 -0.003249
v -0.014989 0.003557 0.005117
v -0.010358 0.003081 0.012113
v -0.002952 0.001779 0.015862
v 0.005245 0.000000 0.015362
v 0.012036 -0.001779 0.010745
v 0.015603 -0.003081 0.003249
v 0.014989 -0.003557 -0.005117
v 0.010358 -0.003081 -0.012113
v 0.002952 -0.001779 -0.015862
v -0.005245 -0.000000 -0.015362
v 0.001076 0.055147 -0.013105
v -0.001983 0.056263 -0.006678
v -0.001456 0.056672 0.000497
v 0.002515 0.056263 0.006496
v 0.008866 0.055147 0.009712
v 0.015895 0.053622 0.009282
v 0.021719 0.052096 0.005323
v 0.024777 0.050980 -0.001105
v 0.024250 0.050571 -0.008279
v 0.020280 0.050980 -0.014278
v 0.013929 0.052096 -0.017494
v 0.006900 0.053622 -0.017064
v 0.014082 0.108357 -0.015518
v 0.011497 0.109231 -0.010108
v 0.011940 0.109573 -0.004076
v 0.015291 0.109291 0.000964
v 0.020652 0.108460 0.003660
v 0.026588 0.107303 0.003290
v 0.031507 0.106130 -0.000046
v 0.034092 0.105255 -0.005456
v 0.033649 0.104913 -0.011489
v 0.030298 0.105196 -0.016528
v 0.024936 0.106027 -0.019224
v 0.019001 0.107184 -0.018854
v 0.024593 0.158778 -0.017684
v 0.022465 0.158520 -0.013168
v 0.022830 0.158777 -0.008190
v 0.025590 0.159480 -0.004083
v 0.030006 0.160441 -0.001948
v 0.034893 0.161403 -0.002356
v 0.038944 0.162107 -0.005198
v 0.041071 0.162365 -0.009714
v 0.040706 0.162108 -0.014692
v 0.037946 0.161405 -0.018799
v 0.033530 0.160444 -0.020934
v 0.028643 0.159482 -0.020526
v -0.002581 0.203885 -0.016471
v -0.004024 0.202963 -0.012802
v -0.003708 0.203119 -0.008769
v -0.001717 0.204311 -0.005452
v 0.001416 0.206220 -0.003739
v 0.004851 0.208334 -0.004091
v 0.007668 0.210086 -0.006411
v 0.009111 0.211008 -0.010080
v 0.008795 0.210852 -0.014113
v 0.006804 0.209660 -0.017430
v 0.003671 0.207751 -0.019143
v 0.000236 0.205637 -0.018791
v -0.030463 0.253131 -0.014320
v -0.031500 0.252144 -0.011431
v -0.030936 0.251568 -0.008309
v -0.028923 0.251556 -0.005790
v -0.025998 0.252112 -0.004550
v -0.022947 0.253087 -0.004921
v -0.020586 0.254220 -0.006804
v -0.019549 0.255207 -0.009693
v -0.020113 0.255784 -0.012815
v -0.022127 0.255796 -0.015334
v -0.025051 0.255240 -0.016574
v -0.028103 0.254264 -0.016203
v -0.029599 0.305128 0.009216
v -0.030402 0.304258 0.011454
v -0.029898 0.303304 0.013745
v -0.028222 0.302522 0.015474
v -0.025823 0.302121 0.016178
v -0.023345 0.302208 0.015669
v -0.021450 0.302761 0.014083
v -0.020648 0.303631 0.011845
v -0.021152 0.304585 0.009555
v -0.022827 0.305367 0.007826
v -0.025226 0.305769 0.007121
v -0.027705 0.305681 0.007630
v -0.023876 0.355079 0.028345
v -0.024406 0.354891 0.030231
v -0.023969 0.354389 0.032082
v -0.022681 0.353705 0.033403
v -0.020887 0.353023 0.033840
v -0.019069 0.352527 0.033276
v -0.017712 0.352348 0.031861
v -0.017182 0.352536 0.029976
v -0.017619 0.353038 0.028124
v -0.018907 0.353722 0.026803
v -0.020701 0.354404 0.026366
v -0.022519 0.354900 0.026930
v 0.004844 0.402243 0.028752
v 0.004592 0.402460 0.030241
v 0.005029 0.402293 0.031693
v 0.006038 0.401786 0.032719
v 0.007349 0.401077 0.033045
v 0.008611 0.400354 0.032582
v 0.009485 0.399812 0.031455
v 0.009737 0.399596 0.029966
v 0.009300 0.399763 0.028513
v 0.008291 0.400269 0.027487
v 0.006980 0.400979 0.027162
v 0.005718 0.401701 0.027625
v 0.029198 0.447892 0.024492
v 0.029134 0.448384 0.025580
v 0.029657 0.448690 0.026610
v 0.030627 0.448727 0.027308
v 0.031784 0.448485 0.027486
v 0.032819 0.448029 0.027096
v 0.033453 0.447481 0.026243
v 0.033516 0.446988 0.025156
v 0.032993 0.446683 0.024125
v 0.032023 0.446646 0.023428
v 0.030866 0.446888 0.023250
v 0.029832 0.447344 0.023640
v 0.029538 0.489792 -0.009877
v 0.029509 0.490378 -0.009109
v 0.029967 0.490908 -0.008443
v 0.030789 0.491241 -0.008058
v 0.031754 0.491288 -0.008058
v 0.032605 0.491036 -0.008442
v 0.033112 0.490553 -0.009108
v 0.033141 0.489967 -0.009876
v 0.032683 0.489437 -0.010542
v 0.031861 0.489103 -0.010927
v 0.030896 0.489057 -0.010927
v 0.030046 0.489309 -0.010543
v 0.025821 0.532360 -0.040027
v 0.025847 0.532645 -0.039247
v 0.026258 0.533025 -0.038633
v 0.026945 0.533397 -0.038349
v 0.027723 0.533662 -0.038472
v 0.028383 0.533749 -0.038968
v 0.028750 0.533634 -0.039705
v 0.028724 0.533349 -0.040485
v 0.028313 0.532969 -0.041099
v 0.027626 0.532597 -0.041382
v 0.026849 0.532332 -0.041260
v 0.026188 0.532245 -0.040764
v -0.005341 0.577248 -0.039970
v -0.005217 0.577334 -0.039200
v -0.004794 0.577628 -0.038608
v -0.004184 0.578052 -0.038353
v -0.003552 0.578492 -0.038504
v -0.003066 0.578830 -0.039019
v -0.002857 0.578976 -0.039762
v -0.002980 0.578890 -0.040532
v -0.003404 0.578595 -0.041124
v -0.004013 0.578171 -0.041379
v -0.004646 0.577731 -0.041228
v -0.005131 0.577393 -0.040713
vn -0.5422 0.0963 -0.8347
vn -0.8722 0.1944 -0.4488
vn -0.9663 0.2511 0.0566
vn -0.7992 0.2511 0.5461
vn -0.4157 0.1944 0.8885
vn 0.0815 0.0963 0.9920
vn 0.5590 -0.0170 0.8290
vn 0.8891 -0.1152 0.4430
vn 0.9831 -0.1719 -0.0624
vn 0.8160 -0.1719 -0.5519
vn 0.4325 -0.1152 -0.8942
vn -0.0646 -0.0170 -0.9978
vn -0.5429 0.0948 -0.8345
vn -0.8727 0.1930 -0.4485
vn -0.9667 0.2497 0.0567
vn -0.7997 0.2497 0.5461
vn -0.4164 0.1930 0.8885
vn 0.0807 0.0947 0.9922
vn 0.5585 -0.0187 0.8293
vn 0.8887 -0.1170 0.4433
vn 0.9828 -0.1737 -0.0623
vn 0.8156 -0.1736 -0.5519
vn 0.4319 -0.1169 -0.8943
vn -0.0653 -0.0186 -0.9977
vn -0.5627 0.0797 -0.8228
vn -0.8864 0.1683 -0.4313
vn -0.9736 0.2204 0.0594
vn -0.8152 0.2231 0.5344
vn -0.4380 0.1762 0.8815
vn 0.0731 0.0932 0.9930
vn 0.5673 -0.0003 0.8235
vn 0.8987 -0.0786 0.4316
vn 0.9899 -0.1258 -0.0658
vn 0.8269 -0.1336 -0.5463
vn 0.4420 -0.0970 -0.8918
vn -0.0720 -0.0193 -0.9972
vn -0.5093 -0.2839 -0.8124
vn -0.7857 -0.4636 -0.4097
vn -0.8553 -0.5106 0.0881
vn -0.7129 -0.4182 0.5630
vn -0.3819 -0.2041 0.9014
vn 0.0623 0.0772 0.9951
vn 0.4851 0.3385 0.8063
vn 0.7619 0.5052 0.4053
vn 0.8329 0.5464 -0.0880
vn 0.6900 0.4598 -0.5590
vn 0.3588 0.2587 -0.8968
vn -0.0852 -0.0155 -0.9962
vn -0.5181 -0.2581 -0.8154
vn -0.7948 -0.4318 -0.4264
vn -0.8691 -0.4884 0.0782
vn -0.7130 -0.4063 0.5715
vn -0.3619 -0.2010 0.9103
vn 0.0792 0.0662 0.9947
vn 0.4850 0.3170 0.8150
vn 0.7591 0.4891 0.4296
vn 0.8373 0.5421 -0.0711
vn 0.6873 0.4575 -0.5642
vn 0.3385 0.2536 -0.9062
vn -0.1061 -0.0096 -0.9943
vn -0.6715 0.3153 -0.6705
vn -0.9468 0.1458 -0.2870
vn -0.9824 -0.0567 0.1778
vn -0.7542 -0.2443 0.6095
vn -0.3104 -0.3627 0.8787
vn 0.2156 -0.3753 0.9015
vn 0.6708 -0.2825 0.6857
vn 0.9475 -0.1119 0.2995
vn 0.9813 0.0967 -0.1663
vn 0.7488 0.2893 -0.5964
vn 0.3031 0.4062 -0.8621
vn -0.2199 0.4126 -0.8840
vn -0.6599 0.3335 -0.6733
vn -0.9454 0.2055 -0.2530
vn -0.9724 0.0296 0.2314
vn -0.7439 -0.1477 0.6518
vn -0.3193 -0.2826 0.9045
vn 0.1976 -0.3385 0.9200
vn 0.6661 -0.2959 0.6847
vn 0.9500 -0.1660 0.2646
vn 0.9760 0.0119 -0.2176
vn 0.7481 0.1891 -0.6360
vn 0.3252 0.3221 -0.8891
vn -0.1907 0.3761 -0.9067
vn -0.6336 0.3919 -0.6671
vn -0.8366 0.5106 -0.1985
vn -0.8107 0.4937 0.3147
vn -0.5731 0.3529 0.7397
vn -0.1839 0.1240 0.9751
vn 0.2634 -0.1388 0.9546
vn 0.6463 -0.3644 0.6705
vn 0.8504 -0.4860 0.2015
vn 0.8240 -0.4718 -0.3138
vn 0.5851 -0.3310 -0.7403
vn 0.1950 -0.0994 -0.9757
vn -0.2521 0.1662 -0.9533
vn -0.6739 0.2967 -0.6766
vn -0.8679 0.4412 -0.2280
vn -0.8302 0.4732 0.2947
vn -0.5560 0.3765 0.7410
vn -0.1292 0.1805 0.9751
vn 0.3226 -0.0553 0.9449
vn 0.6875 -0.2718 0.6734
vn 0.8803 -0.4186 0.2233
vn 0.8401 -0.4521 -0.2997
vn 0.5648 -0.3546 -0.7451
vn 0.1391 -0.1562 -0.9779
vn -0.3102 0.0809 -0.9472
vn -0.8484 -0.3317 -0.4126
vn -0.9991 -0.0220 -0.0371
vn -0.8818 0.3050 0.3596
vn -0.5119 0.5508 0.6593
vn -0.0058 0.6392 0.7690
vn 0.4859 0.5584 0.6724
vn 0.8480 0.3402 0.4065
vn 0.9990 0.0333 0.0305
vn 0.8833 -0.2914 -0.3672
vn 0.5144 -0.5380 -0.6678
vn 0.0074 -0.6293 -0.7771
vn -0.4856 -0.5504 -0.6791
vn -0.8551 -0.3475 -0.3848
vn -0.9975 -0.0630 0.0335
vn -0.8733 0.2305 0.4291
vn -0.5309 0.4622 0.7103
vn -0.0467 0.5798 0.8134
vn 0.4658 0.5447 0.6974
vn 0.8536 0.3563 0.3802
vn 0.9965 0.0733 -0.0393
vn 0.8725 -0.2191 -0.4367
vn 0.5294 -0.4513 -0.7184
vn 0.0444 -0.5704 -0.8202
vn -0.4678 -0.5363 -0.7025
vn -0.7800 -0.5409 -0.3148
vn -0.8027 -0.5578 0.2110
vn -0.6138 -0.4275 0.6637
vn -0.2741 -0.1912 0.9425
vn 0.1414 0.0990 0.9850
vn 0.5327 0.3723 0.7600
vn 0.7785 0.5433 0.3143
vn 0.8021 0.5586 -0.2111
vn 0.6143 0.4268 -0.6637
vn 0.2745 0.1905 -0.9425
vn -0.1419 -0.0981 -0.9850
vn -0.5340 -0.3697 -0.7604
vt 0.000000 1.000000
vt 0.083333 1.000000
vt 0.083333 0.916667
vt 0.000000 0.916667
vt 0.000000 0.083333
vt 0.083333 0.083333
vt 0.083333 0.000000
vt 0.000000 0.000000
vt 0.000000 0.166667
vt 0.083333 0.166667
vt 0.000000 0.250000
vt 0.083333 0.250000
vt 0.000000 0.333333
vt 0.083333 0.333333
vt 0.000000 0.416667
vt 0.083333 0.416667
vt 0.000000 0.500000
vt 0.083333 0.500000
vt 0.000000 0.583333
vt 0.083333 0.583333
vt 0.000000 0.666667
vt 0.083333 0.666667
vt 0.000000 0.750000
vt 0.083333 0.750000
vt 0.000000 0.833333
vt 0.083333 0.833333
vt 0.166667 1.000000
vt 0.166667 0.916667
vt 0.166667 0.083333
vt 0.166667 0.000000
vt 0.166667 0.166667
vt 0.166667 0.250000
vt 0.166667 0.333333
vt 0.166667 0.416667
vt 0.166667 0.500000
vt 0.166667 0.583333
vt 0.166667 0.666667
vt 0.166667 0.750000
vt 0.166667 0.833333
vt 0.250000 1.000000
vt 0.250000 0.916667
vt 0.250000 0.083333
vt 0.250000 0.000000
vt 0.250000 0.166667
vt 0.250000 0.250000
vt 0.250000 0.333333
vt 0.250000 0.416667
vt 0.250000 0.500000
vt 0.250000 0.583333
vt 0.250000 0.666667
vt 0.250000 0.750000
vt 0.250000 0.833333
vt 0.333333 1.000000
vt 0.333333 0.916667
vt 0.333333 0.083333
vt 0.333333 0.000000
vt 0.333333 0.166667
vt 0.333333 0.250000
vt 0.333333 0.333333
vt 0.333333 0.416667
vt 0.333333 0.500000
vt 0.333333 0.583333
vt 0.333333 0.666667
vt 0.333333 0.750000
vt 0.333333 0.833333
vt 0.416667 1.000000
vt 0.416667 0.916667
vt 0.416667 0.083333
vt 0.416667 0.000000
vt 0.416667 0.166667
vt 0.416667 0.250000
vt 0.416667 0.333333
vt 0.416667 0.416667
vt 0.416667 0.500000
vt 0.416667 0.583333
vt 0.416667 0.666667
vt 0.416667 0.750000
vt 0.416667 0.833333
vt 0.500000 1.000000
vt 0.500000 0.916667
vt 0.500000 0.083333
vt 0.500000 0.000000
vt 0.500000 0.166667
vt 0.500000 0.250000
vt 0.500000 0.333333
vt 0.500000 0.416667
vt 0.500000 0.500000
vt 0.500000 0.583333
vt 0.500000 0.666667
vt 0.500000 0.750000
vt 0.500000 0.833333
vt 0.583333 1.000000
vt 0.583333 0.916667
vt 0.583333 0.083333
vt 0.583333 0.000000
vt 0.583333 0.166667
vt 0.583333 0.250000
vt 0.583333 0.333333
vt 0.583333 0.416667
vt 0.583333 0.500000
vt 0.583333 0.583333
vt 0.583333 0.666667
vt 0.583333 0.750000
vt 0.583333 0.833333
vt 0.666667 1.000000
vt 0.666667 0.916667
vt 0.666667 0.083333
vt 0.666667 0.000000
vt 0.666667 0.166667
vt 0.666667 0.250000
vt 0.666667 0.333333
vt 0.666667 0.416667
vt 0.666667 0.500000
vt 0.666667 0.583333
vt 0.666667 0.666667
vt 0.666667 0.750000
vt 0.666667 0.833333
vt 0.750000 1.000000
vt 0.750000 0.916667
vt 0.750000 0.083333
vt 0.750000 0.000000
vt 0.750000 0.166667
vt 0.750000 0.250000
vt 0.750000 0.333333
vt 0.750000 0.416667
vt 0.750000 0.500000
vt 0.750000 0.583333
vt 0.750000 0.666667
vt 0.750000 0.750000
vt 0.750000 0.833333
vt 0.833333 1.000000
vt 0.833333 0.916667
vt 0.833333 0.083333
vt 0.833333 0.000000
vt 0.833333 0.166667
vt 0.833333 0.250000
vt 0.833333 0.333333
vt 0.833333 0.416667
vt 0.833333 0.500000
vt 0.833333 0.583333
vt 0.833333 0.666667
vt 0.833333 0.750000
vt 0.833333 0.833333
vt 0.916667 1.000000
vt 0.916667 0.916667
vt 0.916667 0.083333
vt 0.916667 0.000000
vt 0.916667 0.166667
vt 0.916667 0.250000
vt 0.916667 0.333333
vt 0.916667 0.416667
vt 0.916667 0.500000
vt 0.916667 0.583333
vt 0.916667 0.666667
vt 0.916667 0.750000
vt 0.916667 0.833333
vt 1.000000 1.000000
vt 1.000000 0.916667
vt 1.000000 0.083333
vt 1.000000 0.000000
vt 1.000000 0.166667
vt 1.000000 0.250000
vt 1.000000 0.333333
vt 1.000000 0.416667
vt 1.000000 0.500000
vt 1.000000 0.583333
vt 1.000000 0.666667
vt 1.000000 0.750000
vt 1.000000 0.833333
s 0
f 1/1/1 13/2/1 24/3/1 12/4/1
f 2/5/2 14/6/2 13/7/2 1/8/2
f 3/9/3 15/10/3 14/6/3 2/5/3
f 4/11/4 16/12/4 15/10/4 3/9/4
f 5/13/5 17/14/5 16/12/5 4/11/5
f 6/15/6 18/16/6 17/14/6 5/13/6
f 7/17/7 19/18/7 18/16/7 6/15/7
f 8/19/8 20/20/8 19/18/8 7/17/8
f 9/21/9 21/22/9 20/20/9 8/19/9
f 10/23/10 22/24/10 21/22/10 9/21/10
f 11/25/11 23/26/11 22/24/11 10/23/11
f 12/4/12 24/3/12 23/26/12 11/25/12
f 13/2/13 25/27/13 36/28/13 24/3/13
f 14/6/14 26/29/14 25/30/14 13/7/14
f 15/10/15 27/31/15 26/29/15 14/6/15
f 16/12/16 28/32/16 27/31/16 15/10/16
f 17/14/17 29/33/17 28/32/17 16/12/17
f 18/16/18 30/34/18 29/33/18 17/14/18
f 19/18/19 31/35/19 30/34/19 18/16/19
f 20/20/20 32/36/20 31/35/20 19/18/20
f 21/22/21 33/37/21 32/36/21 20/20/21
f 22/24/22 34/38/22 33/37/22 21/22/22
f 23/26/23 35/39/23 34/38/23 22/24/23
f 24/3/24 36/28/24 35/39/24 23/26/24
f 25/27/25 37/40/25 48/41/25 36/28/25
f 26/29/26 38/42/26 37/43/26 25/30/26
f 27/31/27 39/44/27 38/42/27 26/29/27
f 28/32/28 40/45/28 39/44/28 27/31/28
f 29/33/29 41/46/29 40/45/29 28/32/29
f 30/34/30 42/47/30 41/46/30 29/33/30
f 31/35/31 43/48/31 42/47/31 30/34/31
f 32/36/32 44/49/32 43/48/32 31/35/32
f 33/37/33 45/50/33 44/49/33 32/36/33
f 34/38/34 46/51/34 45/50/34 33/37/34
f 35/39/35 47/52/35 46/51/35 34/38/35
f 36/28/36 48/41/36 47/52/36 35/39/36
f 37/40/37 49/53/37 60/54/37 48/41/37
f 38/42/38 50/55/38 49/56/38 37/43/38
f 39/44/39 51/57/39 50/55/39 38/42/39
f 40/45/40 52/58/40 51/57/40 39/44/40
f 41/46/41 53/59/41 52/58/41 40/45/41
f 42/47/42 54/60/42 53/59/42 41/46/42
f 43/48/43 55/61/43 54/60/43 42/47/43
f 44/49/44 56/62/44 55/61/44 43/48/44
f 45/50/45 57/63/45 56/62/45 44/49/45
f 46/51/46 58/64/46 57/63/46 45/50/46
f 47/52/47 59/65/47 58/64/47 46/51/47
f 48/41/48 60/54/48 59/65/48 47/52/48
f 49/53/49 61/66/49 72/67/49 60/54/49
f 50/55/50 62/68/50 61/69/50 49/56/50
f 51/57/51 63/70/51 62/68/51 50/55/51
f 52/58/52 64/71/52 63/70/52 51/57/52
f 53/59/53 65/72/53 64/71/53 52/58/53
f 54/60/54 66/73/54 65/72/54 53/59/54
f 55/61/55 67/74/55 66/73/55 54/60/55
f 56/62/56 68/75/56 67/74/56 55/61/56
f 57/63/57 69/76/57 68/75/57 56/62/57
f 58/64/58 70/77/58 69/76/58 57/63/58
f 59/65/59 71/78/59 70/77/59 58/64/59
f 60/54/60 72/67/60 71/78/60 59/65/60
f 61/66/61 73/79/61 84/80/61 72/67/61
f 62/68/62 74/81/62 73/82/62 61/69/62
f 63/70/63 75/83/63 74/81/63 62/68/63
f 64/71/64 76/84/64 75/83/64 63/70/64
f 65/72/65 77/85/65 76/84/65 64/71/65
f 66/73/66 78/86/66 77/85/66 65/72/66
f 67/74/67 79/87/67 78/86/67 66/73/67
f 68/75/68 80/88/68 79/87/68 67/74/68
f 69/76/69 81/89/69 80/88/69 68/75/69
f 70/77/70 82/90/70 81/89/70 69/76/70
f 71/78/71 83/91/71 82/90/71 70/77/71
f 72/67/72 84/80/72 83/91/72 71/78/72
f 73/79/73 85/92/73 96/93/73 84/80/73
f 74/81/74 86/94/74 85/95/74 73/82/74
f 75/83/75 87/96/75 86/94/75 74/81/75
f 76/84/76 88/97/76 87/96/76 75/83/76
f 77/85/77 89/98/77 88/97/77 76/84/77
f 78/86/78 90/99/78 89/98/78 77/85/78
f 79/87/79 91/100/79 90/99/79 78/86/79
f 80/88/80 92/101/80 91/100/80 79/87/80
f 81/89/81 93/102/81 92/101/81 80/88/81
f 82/90/82 94/103/82 93/102/82 81/89/82
f 83/91/83 95/104/83 94/103/83 82/90/83
f 84/80/84 96/93/84 95/104/84 83/91/84
f 85/92/85 97/105/85 108/106/85 96/93/85
f 86/94/86 98/107/86 97/108/86 85/95/86
f 87/96/87 99/109/87 98/107/87 86/94/87
f 88/97/88 100/110/88 99/109/88 87/96/88
f 89/98/89 101/111/89 100/110/89 88/97/89
f 90/99/90 102/112/90 101/111/90 89/98/90
f 91/100/91 103/113/91 102/112/91 90/99/91
f 92/101/92 104/114/92 103/113/92 91/100/92
f 93/102/93 105/115/93 104/114/93 92/101/93
f 94/103/94 106/116/94 105/115/94 93/102/94
f 95/104/95 107/117/95 106/116/95 94/103/95
f 96/93/96 108/106/96 107/117/96 95/104/96
f 97/105/97 109/118/97 120/119/97 108/106/97
f 98/107/98 110/120/98 109/121/98 97/108/98
f 99/109/99 111/122/99 110/120/99 98/107/99
f 100/110/100 112/123/100 111/122/100 99/109/100
f 101/111/101 113/124/101 112/123/101 100/110/101
f 102/112/102 114/125/102 113/124/102 101/111/102
f 103/113/103 115/126/103 114/125/103 102/112/103
f 104/114/104 116/127/104 115/126/104 103/113/104
f 105/115/105 117/128/105 116/127/105 104/114/105
f 106/116/106 118/129/106 117/128/106 105/115/106
f 107/117/107 119/130/107 118/129/107 106/116/107
f 108/106/108 120/119/108 119/130/108 107/117/108
f 109/118/109 121/131/109 132/132/109 120/119/109
f 110/120/110 122/133/110 121/134/110 109/121/110
f 111/122/111 123/135/111 122/133/111 110/120/111
f 112/123/112 124/136/112 123/135/112 111/122/112
f 113/124/113 125/137/113 124/136/113 112/123/113
f 114/125/114 126/138/114 125/137/114 113/124/114
f 115/126/115 127/139/115 126/138/115 114/125/115
f 116/127/116 128/140/116 127/139/116 115/126/116
f 117/128/117 129/141/117 128/140/117 116/127/117
f 118/129/118 130/142/118 129/141/118 117/128/118
f 119/130/119 131/143/119 130/142/119 118/129/119
f 120/119/120 132/132/120 131/143/120 119/130/120
f 121/131/121 133/144/121 144/145/121 132/132/121
f 122/133/122 134/146/122 133/147/122 121/134/122
f 123/135/123 135/148/123 134/146/123 122/133/123
f 124/136/124 136/149/124 135/148/124 123/135/124
f 125/137/125 137/150/125 136/149/125 124/136/125
f 126/138/126 138/151/126 137/150/126 125/137/126
f 127/139/127 139/152/127 138/151/127 126/138/127
f 128/140/128 140/153/128 139/152/128 127/139/128
f 129/141/129 141/154/129 140/153/129 128/140/129
f 130/142/130 142/155/130 141/154/130 129/141/130
f 131/143/131 143/156/131 142/155/131 130/142/131
f 132/132/132 144/145/132 143/156/132 131/143/132
f 133/144/133 145/157/133 156/158/133 144/145/133
f 134/146/134 146/159/134 145/160/134 133/147/134
f 135/148/135 147/161/135 146/159/135 134/146/135
f 136/149/136 148/162/136 147/161/136 135/148/136
f 137/150/137 149/163/137 148/162/137 136/149/137
f 138/151/138 150/164/138 149/163/138 137/150/138
f 139/152/139 151/165/139 150/164/139 138/151/139
f 140/153/140 152/166/140 151/165/140 139/152/140
f 141/154/141 153/167/141 152/166/141 140/153/141
f 142/155/142 154/168/142 153/167/142 141/154/142
f 143/156/143 155/169/143 154/168/143 142/155/143
f 144/145/144 156/158/144 155/169/144 143/156/144
